<svg width="324" height="332" viewBox="0 0 324 332" fill="none" xmlns="http://www.w3.org/2000/svg">
<path d="M59.2913 183.798C66.2596 187.098 72.7097 191.794 79.6003 195.153C110.135 210.038 142.152 223.888 176.48 226.094C196.112 227.357 209.504 222.787 225.8 212.484C227.371 219.362 229.161 226.345 230.842 233.21C225.113 235.702 217.066 239.029 211.09 240.551C163.075 252.775 104.835 229.696 63.6038 206.213C73.6814 231.515 85.1211 245.361 107.76 260.329C117.393 266.373 128.038 270.626 139.183 272.882C172.773 279.721 202.265 273.516 230.585 254.831C238.538 255.962 246.458 257.316 254.335 258.891C217.497 297.753 143.97 303.487 98.8715 276.009C70.3062 258.63 49.8383 230.582 41.9946 198.067L59.2913 183.798Z" fill="#ECECED"/>
<path d="M160.921 44.0761C183.527 43.3405 198.545 47.9895 219.054 55.6867L215.949 77.016C207.552 82.3064 197.362 86.9683 188.644 92.0581C170.061 102.907 152.664 113.82 135.572 126.924C114.387 143.168 102.967 156.907 95.7861 182.878C90.353 179.364 82.4446 176.002 76.2648 172.222C78.7208 166.353 82.6157 160.998 85.8163 155.524C106.39 120.337 145.586 95.4566 181.139 76.1739L197.936 66.5236C192.686 65.1429 185.091 63.6544 179.65 62.9259C151.153 58.8479 122.22 66.5006 99.461 84.1351C73.5256 104.007 61.3996 129.798 57.1712 161.488C53.4078 165.555 43.7033 172.871 39.0278 176.56C37.6327 104.564 88.8724 48.2009 160.921 44.0761Z" fill="#E4E3E4"/>
<path d="M236.374 65.2344C263.306 84.3934 281.971 111.628 288.553 144.207C295.605 178.128 288.637 213.46 269.237 242.159C264.682 240.796 256.714 239.778 251.767 239.004C241.197 203.197 227.327 160.755 209.336 128.002C204.252 119.277 202.237 116.075 195.476 108.552C201.595 105.204 207.217 102.156 213.528 99.135C238.802 143.329 248.748 168.74 264.079 216.952C278.675 179.958 276.533 136.295 251.484 104.16C247.112 98.5525 239.33 91.9231 234.055 86.8513C234.685 79.6897 235.213 72.3139 236.374 65.2344Z" fill="#ECECED"/>
</svg>
