<svg width="500" height="500" viewBox="0 0 500 500" fill="none" xmlns="http://www.w3.org/2000/svg">
<path d="M147.291 255.798C154.26 259.098 160.71 263.794 167.6 267.153C198.135 282.038 230.152 295.888 264.48 298.094C284.112 299.357 297.504 294.787 313.8 284.484C315.371 291.362 317.161 298.345 318.842 305.21C313.113 307.702 305.066 311.029 299.09 312.551C251.075 324.775 192.835 301.696 151.604 278.213C161.681 303.515 173.121 317.361 195.76 332.329C205.393 338.373 216.038 342.626 227.183 344.882C260.773 351.721 290.265 345.516 318.585 326.831C326.538 327.962 334.458 329.316 342.335 330.891C305.497 369.753 231.97 375.487 186.871 348.009C158.306 330.63 137.838 302.582 129.995 270.067L147.291 255.798Z" fill="#ECECED"/>
<path d="M248.921 116.076C271.527 115.34 286.545 119.989 307.054 127.687L303.949 149.016C295.552 154.306 285.362 158.968 276.644 164.058C258.061 174.907 240.664 185.82 223.572 198.924C202.387 215.168 190.967 228.907 183.786 254.878C178.353 251.364 170.445 248.002 164.265 244.222C166.721 238.353 170.616 232.998 173.816 227.524C194.39 192.337 233.586 167.457 269.139 148.174L285.936 138.524C280.686 137.143 273.091 135.654 267.65 134.926C239.153 130.848 210.22 138.501 187.461 156.135C161.526 176.007 149.4 201.798 145.171 233.488C141.408 237.555 131.703 244.871 127.028 248.56C125.633 176.564 176.872 120.201 248.921 116.076Z" fill="#E4E3E4"/>
<path d="M324.374 137.234C351.305 156.393 369.971 183.628 376.553 216.207C383.605 250.128 376.637 285.46 357.237 314.159C352.682 312.796 344.714 311.778 339.767 311.004C329.197 275.197 315.326 232.755 297.336 200.002C292.252 191.277 290.237 188.075 283.476 180.552C289.594 177.204 295.217 174.156 301.528 171.135C326.802 215.329 336.748 240.74 352.079 288.952C366.675 251.958 364.533 208.295 339.483 176.16C335.112 170.552 327.33 163.923 322.054 158.851C322.685 151.69 323.213 144.314 324.374 137.234Z" fill="#ECECED"/>
<circle cx="250" cy="250" r="250" fill="#512E9F"/>
<g clip-path="url(#clip0_32_133)">
<rect width="324" height="332" transform="translate(88 84)" fill="#512E9F"/>
<path d="M147.291 267.798C154.26 271.098 160.71 275.794 167.6 279.153C198.135 294.038 230.152 307.888 264.48 310.094C284.112 311.357 297.504 306.787 313.8 296.484C315.371 303.362 317.161 310.345 318.842 317.21C313.113 319.702 305.066 323.029 299.09 324.551C251.075 336.775 192.835 313.696 151.604 290.213C161.681 315.515 173.121 329.361 195.76 344.329C205.393 350.373 216.038 354.626 227.183 356.882C260.773 363.721 290.265 357.516 318.585 338.831C326.538 339.962 334.458 341.316 342.335 342.891C305.497 381.753 231.97 387.487 186.871 360.009C158.306 342.63 137.838 314.582 129.995 282.067L147.291 267.798Z" fill="#ECECED"/>
<path d="M248.921 128.076C271.527 127.34 286.545 131.989 307.054 139.687L303.949 161.016C295.552 166.306 285.362 170.968 276.644 176.058C258.061 186.907 240.664 197.82 223.572 210.924C202.387 227.168 190.967 240.907 183.786 266.878C178.353 263.364 170.445 260.002 164.265 256.222C166.721 250.353 170.616 244.998 173.816 239.524C194.39 204.337 233.586 179.457 269.139 160.174L285.936 150.524C280.686 149.143 273.091 147.654 267.65 146.926C239.153 142.848 210.22 150.501 187.461 168.135C161.526 188.007 149.4 213.798 145.171 245.488C141.408 249.555 131.703 256.871 127.028 260.56C125.633 188.564 176.872 132.201 248.921 128.076Z" fill="#E4E3E4"/>
<path d="M324.374 149.234C351.305 168.393 369.971 195.628 376.553 228.207C383.605 262.128 376.637 297.46 357.237 326.159C352.682 324.796 344.714 323.778 339.767 323.004C329.197 287.197 315.326 244.755 297.336 212.002C292.252 203.277 290.237 200.075 283.476 192.552C289.594 189.204 295.217 186.156 301.528 183.135C326.802 227.329 336.748 252.74 352.079 300.952C366.675 263.958 364.533 220.295 339.483 188.16C335.112 182.552 327.33 175.923 322.054 170.851C322.685 163.69 323.213 156.314 324.374 149.234Z" fill="#ECECED"/>
</g>
<defs>
<clipPath id="clip0_32_133">
<rect width="324" height="332" fill="white" transform="translate(88 84)"/>
</clipPath>
</defs>
</svg>
