<svg width="325" height="333" viewBox="0 0 325 333" fill="none" xmlns="http://www.w3.org/2000/svg">
<rect x="0.5" y="0.5" width="324" height="332" fill="#512E9F"/>
<rect x="0.5" y="0.5" width="324" height="332" stroke="black"/>
<path d="M59.7913 184.298C66.7596 187.598 73.2097 192.294 80.1003 195.653C110.635 210.538 142.652 224.388 176.98 226.594C196.612 227.857 210.004 223.287 226.3 212.984C227.871 219.862 229.661 226.845 231.342 233.71C225.613 236.202 217.566 239.529 211.59 241.051C163.575 253.275 105.335 230.196 64.1038 206.713C74.1814 232.015 85.6211 245.861 108.26 260.829C117.893 266.873 128.538 271.126 139.683 273.382C173.273 280.221 202.765 274.016 231.085 255.331C239.038 256.462 246.958 257.816 254.835 259.391C217.997 298.253 144.47 303.987 99.3715 276.509C70.8062 259.13 50.3383 231.082 42.4946 198.567L59.7913 184.298Z" fill="#ECECED"/>
<path d="M161.421 44.5761C184.027 43.8405 199.045 48.4895 219.554 56.1867L216.449 77.516C208.052 82.8064 197.862 87.4683 189.144 92.5581C170.561 103.407 153.164 114.32 136.072 127.424C114.887 143.668 103.467 157.407 96.2861 183.378C90.853 179.864 82.9446 176.502 76.7648 172.722C79.2208 166.853 83.1157 161.498 86.3163 156.024C106.89 120.837 146.086 95.9566 181.639 76.6739L198.436 67.0236C193.186 65.6429 185.591 64.1544 180.15 63.4259C151.653 59.3479 122.72 67.0006 99.961 84.6351C74.0256 104.507 61.8996 130.298 57.6712 161.988C53.9078 166.055 44.2033 173.371 39.5278 177.06C38.1327 105.064 89.3724 48.7009 161.421 44.5761Z" fill="#E4E3E4"/>
<path d="M236.874 65.7344C263.806 84.8934 282.471 112.128 289.053 144.707C296.105 178.628 289.137 213.96 269.737 242.659C265.182 241.296 257.214 240.278 252.267 239.504C241.697 203.697 227.827 161.255 209.836 128.502C204.752 119.777 202.737 116.575 195.976 109.052C202.095 105.704 207.717 102.656 214.028 99.635C239.302 143.829 249.248 169.24 264.579 217.452C279.175 180.458 277.033 136.795 251.984 104.66C247.612 99.0525 239.83 92.4231 234.555 87.3513C235.185 80.1897 235.713 72.8139 236.874 65.7344Z" fill="#ECECED"/>
</svg>
